<svg width="24" height="24" viewBox="0 0 24 24" fill="none" xmlns="http://www.w3.org/2000/svg">
<path d="M10.5 5C11.3284 5 12 4.32843 12 3.5C12 2.67157 11.3284 2 10.5 2C9.67157 2 9 2.67157 9 3.5C9 4.32843 9.67157 5 10.5 5Z" fill="currentColor"/>
<path d="M8 3C8.55228 3 9 2.55228 9 2C9 1.44772 8.55228 1 8 1C7.44772 1 7 1.44772 7 2C7 2.55228 7.44772 3 8 3Z" fill="currentColor"/>
<path d="M6 3C6.55228 3 7 2.55228 7 2C7 1.44772 6.55228 1 6 1C5.44772 1 5 1.44772 5 2C5 2.55228 5.44772 3 6 3Z" fill="currentColor"/>
<path d="M4 4C4.55228 4 5 3.55228 5 3C5 2.44772 4.55228 2 4 2C3.44772 2 3 2.44772 3 3C3 3.55228 3.44772 4 4 4Z" fill="currentColor"/>
<path d="M2.5 5C2.77614 5 3 4.77614 3 4.5C3 4.22386 2.77614 4 2.5 4C2.22386 4 2 4.22386 2 4.5C2 4.77614 2.22386 5 2.5 5Z" fill="currentColor"/>
<path d="M14.5 10C15.3284 10 16 9.32843 16 8.5C16 7.67157 15.3284 7 14.5 7C13.6716 7 13 7.67157 13 8.5C13 9.32843 13.6716 10 14.5 10Z" fill="currentColor"/>
<path d="M17 8C17.5523 8 18 7.55228 18 7C18 6.44772 17.5523 6 17 6C16.4477 6 16 6.44772 16 7C16 7.55228 16.4477 8 17 8Z" fill="currentColor"/>
<path d="M19 8C19.5523 8 20 7.55228 20 7C20 6.44772 19.5523 6 19 6C18.4477 6 18 6.44772 18 7C18 7.55228 18.4477 8 19 8Z" fill="currentColor"/>
<path d="M21 9C21.5523 9 22 8.55228 22 8C22 7.44772 21.5523 7 21 7C20.4477 7 20 7.44772 20 8C20 8.55228 20.4477 9 21 9Z" fill="currentColor"/>
<path d="M22.5 10C22.7761 10 23 9.77614 23 9.5C23 9.22386 22.7761 9 22.5 9C22.2239 9 22 9.22386 22 9.5C22 9.77614 22.2239 10 22.5 10Z" fill="currentColor"/>
<path d="M6.99148 11.6108V11.5305C6.99216 11.2696 7.06073 11.0132 7.19044 10.7868C7.32016 10.5603 7.50656 10.3715 7.73133 10.2389C9.06426 9.4449 9.98638 8.11299 9.98638 6.75397C9.98638 4.85727 7.83637 3.80702 6.04362 4.02945C-1.00298 5.39991 2.63538 14.9806 5.72588 17.266C7.01108 18.2164 8.79474 18.2205 9.66694 16.7292C9.88178 16.354 9.99509 15.9294 9.9957 15.4971C9.9963 15.0648 9.88418 14.6398 9.6704 14.2641C9.34879 13.6955 8.8189 13.274 8.19248 13.0885C7.50737 12.8885 6.99148 12.3274 6.99148 11.6108Z" fill="currentColor"/>
<path d="M17.9998 16.6489V16.5686C17.9991 16.3076 17.9306 16.0513 17.8009 15.8249C17.6711 15.5984 17.4847 15.4096 17.26 15.2769C15.927 14.483 15.0049 13.1511 15.0049 11.7921C15.0049 9.89535 17.1549 8.84511 18.9477 9.06753C25.9943 10.438 22.3559 20.0187 19.2654 22.3041C17.9802 23.2545 16.1966 23.2586 15.3244 21.7673C15.1095 21.3921 14.9962 20.9675 14.9956 20.5352C14.995 20.1029 15.1071 19.6779 15.3209 19.3022C15.6425 18.7335 16.1724 18.312 16.7988 18.1266C17.4839 17.9266 17.9998 17.3654 17.9998 16.6489Z" fill="currentColor"/>
</svg>
