<svg width="24" height="24" viewBox="0 0 24 24" fill="none" xmlns="http://www.w3.org/2000/svg">
<path d="M13.0942 4.2334C13.5637 4.2334 13.9438 4.61357 13.9438 5.08301C13.9438 5.55245 13.5637 5.93262 13.0942 5.93262C12.6248 5.93262 12.2446 5.55245 12.2446 5.08301C12.2446 4.61357 12.6248 4.2334 13.0942 4.2334Z" stroke="currentColor" stroke-width="0.8"/>
<path d="M11.0107 3.2998C11.3052 3.2998 11.5438 3.53861 11.5439 3.83301C11.5439 4.12756 11.3053 4.36621 11.0107 4.36621C10.7163 4.36604 10.4775 4.12745 10.4775 3.83301C10.4777 3.53871 10.7164 3.29998 11.0107 3.2998Z" stroke="currentColor" stroke-width="0.6"/>
<path d="M9.34399 3.2998C9.63844 3.2998 9.87702 3.53861 9.8772 3.83301C9.8772 4.12756 9.63855 4.36621 9.34399 4.36621C9.04959 4.36604 8.81079 4.12745 8.81079 3.83301C8.81097 3.53871 9.0497 3.29998 9.34399 3.2998Z" stroke="currentColor" stroke-width="0.6"/>
<path d="M7.67725 4.13281C7.97169 4.13281 8.21027 4.37161 8.21045 4.66602C8.21045 4.96057 7.9718 5.19922 7.67725 5.19922C7.38284 5.19904 7.14404 4.96046 7.14404 4.66602C7.14422 4.37172 7.38295 4.13299 7.67725 4.13281Z" stroke="currentColor" stroke-width="0.6"/>
<path d="M6.42798 5.65039C6.5751 5.65057 6.69458 5.76982 6.69458 5.91699C6.6944 6.06401 6.575 6.18342 6.42798 6.18359C6.28081 6.18359 6.16155 6.06412 6.16138 5.91699C6.16138 5.76972 6.2807 5.65039 6.42798 5.65039Z" stroke="currentColor" stroke-width="0.3"/>
<path d="M9.49512 6.2666C10.072 6.20046 10.7103 6.3386 11.1885 6.63477C11.6612 6.92763 11.916 7.32665 11.916 7.79492C11.916 8.59053 11.3574 9.48499 10.4062 10.0527C10.1069 10.2294 9.85831 10.4816 9.68555 10.7832C9.51288 11.0848 9.42182 11.426 9.4209 11.7734V11.8428C9.42112 12.8407 10.1407 13.5533 10.9609 13.793C11.2955 13.8926 11.5781 14.1189 11.75 14.4229L11.751 14.4238C11.8646 14.6236 11.9242 14.8502 11.9238 15.0801C11.9235 15.3098 11.8622 15.536 11.748 15.7354C11.5108 16.1367 11.1787 16.314 10.8174 16.3477C10.4307 16.3836 9.97108 16.255 9.56152 15.9521C9.04023 15.5666 8.43246 14.8151 7.90625 13.834C7.38607 12.8641 6.98077 11.7346 6.82227 10.6455C6.66274 9.54895 6.76197 8.56318 7.16113 7.81543C7.53989 7.10606 8.23758 6.51796 9.49512 6.2666Z" stroke="currentColor" stroke-width="1.5"/>
</svg>
