<svg width="24" height="24" viewBox="0 0 24 24" fill="none" xmlns="http://www.w3.org/2000/svg">
<path d="M10.5 2.40039C11.1075 2.40039 11.5996 2.89249 11.5996 3.5C11.5996 4.10751 11.1075 4.59961 10.5 4.59961C9.89249 4.59961 9.40039 4.10751 9.40039 3.5C9.40039 2.89249 9.89249 2.40039 10.5 2.40039Z" stroke="currentColor" stroke-width="0.8"/>
<path d="M8 1.2998C8.3866 1.2998 8.7002 1.6134 8.7002 2C8.7002 2.3866 8.3866 2.7002 8 2.7002C7.6134 2.7002 7.2998 2.3866 7.2998 2C7.2998 1.6134 7.6134 1.2998 8 1.2998Z" stroke="currentColor" stroke-width="0.6"/>
<path d="M6 1.2998C6.3866 1.2998 6.7002 1.6134 6.7002 2C6.7002 2.3866 6.3866 2.7002 6 2.7002C5.6134 2.7002 5.2998 2.3866 5.2998 2C5.2998 1.6134 5.6134 1.2998 6 1.2998Z" stroke="currentColor" stroke-width="0.6"/>
<path d="M4 2.2998C4.3866 2.2998 4.7002 2.6134 4.7002 3C4.7002 3.3866 4.3866 3.7002 4 3.7002C3.6134 3.7002 3.2998 3.3866 3.2998 3C3.2998 2.6134 3.6134 2.2998 4 2.2998Z" stroke="currentColor" stroke-width="0.6"/>
<path d="M2.5 4.15039C2.6933 4.15039 2.84961 4.3067 2.84961 4.5C2.84961 4.6933 2.6933 4.84961 2.5 4.84961C2.3067 4.84961 2.15039 4.6933 2.15039 4.5C2.15039 4.3067 2.3067 4.15039 2.5 4.15039Z" stroke="currentColor" stroke-width="0.3"/>
<path d="M14.5 7.40039C15.1075 7.40039 15.5996 7.89249 15.5996 8.5C15.5996 9.10751 15.1075 9.59961 14.5 9.59961C13.8925 9.59961 13.4004 9.10751 13.4004 8.5C13.4004 7.89249 13.8925 7.40039 14.5 7.40039Z" stroke="currentColor" stroke-width="0.8"/>
<path d="M17 6.2998C17.3866 6.29981 17.7002 6.6134 17.7002 7C17.7002 7.3866 17.3866 7.70019 17 7.7002C16.6134 7.7002 16.2998 7.3866 16.2998 7C16.2998 6.6134 16.6134 6.2998 17 6.2998Z" stroke="currentColor" stroke-width="0.6"/>
<path d="M19 6.2998C19.3866 6.2998 19.7002 6.6134 19.7002 7C19.7002 7.3866 19.3866 7.7002 19 7.7002C18.6134 7.7002 18.2998 7.3866 18.2998 7C18.2998 6.6134 18.6134 6.2998 19 6.2998Z" stroke="currentColor" stroke-width="0.6"/>
<path d="M21 7.2998C21.3866 7.2998 21.7002 7.6134 21.7002 8C21.7002 8.3866 21.3866 8.7002 21 8.7002C20.6134 8.7002 20.2998 8.3866 20.2998 8C20.2998 7.6134 20.6134 7.2998 21 7.2998Z" stroke="currentColor" stroke-width="0.6"/>
<path d="M22.5 9.15039C22.6933 9.15039 22.8496 9.3067 22.8496 9.5C22.8496 9.6933 22.6933 9.84961 22.5 9.84961C22.3067 9.84961 22.1504 9.6933 22.1504 9.5C22.1504 9.3067 22.3067 9.15039 22.5 9.15039Z" stroke="currentColor" stroke-width="0.3"/>
<path d="M6.15869 4.77148C6.88495 4.68696 7.68749 4.85955 8.29248 5.23438C8.89209 5.60588 9.23679 6.1276 9.23682 6.75391C9.23682 7.77609 8.52367 8.89269 7.3501 9.59277C7.01327 9.79153 6.73393 10.0747 6.53955 10.4141C6.34524 10.7533 6.24277 11.1373 6.2417 11.5283V11.6104C6.2417 12.7279 7.04745 13.5346 7.98193 13.8076C8.42095 13.9382 8.79158 14.2351 9.01709 14.6338L9.01807 14.6348C9.16736 14.8972 9.24603 15.1942 9.24561 15.4961C9.24517 15.798 9.16516 16.0945 9.01514 16.3564C8.7051 16.8825 8.26239 17.1213 7.78174 17.166C7.27576 17.2131 6.6881 17.0452 6.17139 16.6631C5.52143 16.1824 4.77914 15.2599 4.14209 14.0723C3.51098 12.8956 3.01878 11.5231 2.82568 10.1963C2.63154 8.86195 2.74905 7.64356 3.24854 6.70801C3.72754 5.81089 4.60693 5.07997 6.15869 4.77148Z" stroke="currentColor" stroke-width="1.5"/>
<path d="M18.7495 16.5664C18.7484 16.1754 18.646 15.7914 18.4517 15.4521C18.2573 15.1128 17.9779 14.8296 17.6411 14.6309C16.4676 13.9308 15.7554 12.8142 15.7554 11.792C15.7554 11.1657 16.0992 10.644 16.6987 10.2725C17.3034 9.89782 18.1056 9.72533 18.8315 9.80957C20.3839 10.1179 21.2636 10.8488 21.7427 11.7461C22.2422 12.6817 22.3597 13.9 22.1655 15.2344C21.9724 16.5612 21.4802 17.9337 20.8491 19.1104C20.2121 20.298 19.4698 21.2205 18.8198 21.7012C18.3031 22.0833 17.7155 22.2512 17.2095 22.2041C16.7873 22.1648 16.3938 21.9762 16.0942 21.5742L15.9722 21.3887C15.8243 21.1281 15.746 20.8339 15.7456 20.5342C15.7452 20.2323 15.8239 19.9352 15.9731 19.6729L15.9741 19.6719C16.1995 19.2734 16.5697 18.9764 17.0083 18.8457L17.0093 18.8467C17.9439 18.5737 18.7495 17.7661 18.7495 16.6484V16.5664Z" stroke="currentColor" stroke-width="1.5"/>
</svg>
